<?xml version="1.0" encoding="UTF-8"?>
<svg id="Capa_3" data-name="Capa 3" xmlns="http://www.w3.org/2000/svg" viewBox="0 0 736 736">
  <defs>
    <style>
      .cls-1 {
        fill: none;
        stroke: #fffced;
        stroke-miterlimit: 10;
        stroke-width: 51.58px;
      }

      .cls-2 {
        fill: #fffced;
      }
    </style>
  </defs>
  <polygon class="cls-2" points="368 114.31 197.84 28.73 41.44 192.14 113.91 429.14 354.89 673.94 535.24 547.7 683.19 305.7 683.19 157.17 567.01 37.88 461.28 48.33 368 114.31"/>
  <path class="cls-1" d="M354.89,129.25c12.03-14.68,85.25-101.57,176.78-90.37,5.6.68,25.41,3.47,49.02,14.71,47.15,22.46,87.07,68.01,104.01,117.75,42.56,124.97-64.59,262.7-92.61,298.71-13.44,17.27-28.52,32.61-58.13,62.6-73.25,74.18-136.01,130.12-179.07,166.93"/>
  <path class="cls-1" d="M381.11,129.25c-12.03-14.68-85.25-101.57-176.78-90.37-5.6.68-25.41,3.47-49.02,14.71-47.15,22.46-87.07,68.01-104.01,117.75-42.56,124.97,64.59,262.7,92.61,298.71,13.44,17.27,28.52,32.61,58.13,62.6,73.25,74.18,136.01,130.12,179.07,166.93"/>
  <polygon class="cls-2" points="367.88 157.17 399.29 105.91 336.47 105.91 367.88 157.17"/>
  <polygon class="cls-2" points="367.88 725.2 399.29 673.94 336.47 673.95 367.88 725.2"/>
</svg>