<?xml version="1.0" encoding="UTF-8"?>
<svg id="Capa_7" data-name="Capa 7" xmlns="http://www.w3.org/2000/svg" viewBox="0 0 758.73 736">
  <defs>
    <style>
      .cls-1 {
        fill: none;
        stroke: #fffced;
        stroke-miterlimit: 10;
        stroke-width: 51.58px;
      }

      .cls-2 {
        fill: #fffced;
      }
    </style>
  </defs>
  <g id="Capa_9" data-name="Capa 9">
    <polygon class="cls-2" points="49.24 310.69 359.28 56.76 449.26 79.36 715.14 316.85 706.25 387.31 653.85 393.92 648.44 629.09 629.63 689.64 496.1 682.21 487.34 491.29 346.17 459.79 278.69 489.1 278.69 671.89 129.18 677.79 121.77 561.34 101.53 388.32 53.9 364.28 49.24 310.69"/>
  </g>
  <path class="cls-1" d="M723.06,352.12c-.39,1.31-1.27,2.43-1.8,3.69-3.06,7.26-10.24,15.71-23.19,17.99-12.71,2.24-19.95-3.16-28.9,0-15.85,5.59-19.03,35.24-19.93,44.85-6.41,68.02-.72,213.94,0,231.95.18,11.42-4.54,21.23-20.93,27.19h-149.5v-200.33c-1.7-11.94-7.79-17.43-17.94-16.94l-68.69-1V37.02c7.65,0,15.03,2.66,21.84,10.86l307.98,275.09c5.86,7.99,6.58,10.77,1.07,29.16Z"/>
  <path class="cls-1" d="M34.42,352.12c.39,1.31,1.27,2.43,1.8,3.69,3.06,7.26,10.24,15.71,23.19,17.99,12.71,2.24,19.95-3.16,28.9,0,15.85,5.59,19.03,35.24,19.93,44.85,6.41,68.02.72,213.94,0,231.95-.18,11.42,4.54,21.23,20.93,27.19h149.5v-200.33c1.7-11.94,7.79-17.43,17.94-16.94l68.69-1V37.02c-7.65,0-15.03,2.66-21.84,10.86L35.49,322.96c-5.86,7.99-6.58,10.77-1.07,29.16Z"/>
  <g id="Capa_8" data-name="Capa 8">
    <rect class="cls-2" x="322.21" y="104.92" width="114.32" height="328.79"/>
    <rect class="cls-2" x="322.21" y="70.03" width="114.32" height="328.79" rx="57.16" ry="57.16"/>
  </g>
</svg>