<?xml version="1.0" encoding="UTF-8"?>
<svg id="Capa_6" data-name="Capa 6" xmlns="http://www.w3.org/2000/svg" viewBox="0 0 736 736">
  <defs>
    <style>
      .cls-1 {
        fill: none;
        stroke: #0c0c0c;
        stroke-miterlimit: 10;
        stroke-width: 56.89px;
      }

      .cls-2 {
        fill: #24418c;
      }
    </style>
  </defs>
  <g id="Capa_5" data-name="Capa 5">
    <polygon class="cls-2" points="46.97 319.77 203.56 438.4 142.59 658.37 175.13 682.21 362.67 558.94 540.27 682.21 577.45 669.84 519.68 449.6 718.89 306.76 685.52 259.65 464.21 266.49 391.09 46.36 336.47 61.39 272.92 262.66 56.34 260.33 46.97 319.77"/>
  </g>
  <path class="cls-1" d="M525.87,682.58l-163.2-123.64-168.01,117c-27.08,18.86-62.47-7.95-51.64-39.13l67.15-193.41-163.2-123.64c-26.3-19.93-11.74-61.87,21.25-61.21l204.7,4.1,67.15-193.41c10.82-31.17,55.21-30.28,64.78,1.3l59.36,195.95,204.7,4.1c32.99.66,45.86,43.15,18.78,62.01l-168.01,117,59.36,195.95c9.57,31.58-26.87,56.95-53.17,37.03Z"/>
</svg>